<svg width="1280" height="1500" viewBox="0 0 1280 1500" fill="none" xmlns="http://www.w3.org/2000/svg">
<rect width="1280" height="1500" fill="#E5E5E5"/>
<rect width="1280" height="1500" fill="#303866" fill-opacity="0.75"/>
<path d="M34.4691 80.6587H33.5709V97.5749L22.3932 81.7565C21.8942 81.0579 21.1956 80.6587 20.2974 80.6587H19V100.719C19 102.066 19.5489 102.764 20.6966 102.764H21.495V85.998L32.7226 101.567C33.3214 102.365 34.0699 102.764 34.9681 102.764H36.0659V82.7046C36.0659 81.3573 35.517 80.6587 34.4691 80.6587ZM114.559 89.0419H113.711V101.267C113.711 101.267 110.218 101.517 108.521 100.12C106.824 98.7226 106.824 95.479 106.824 95.479V90.8383C106.824 89.6407 106.176 89.0419 104.878 89.0419H104.03V96.3772C104.03 96.3772 103.83 100.22 106.974 101.816C109.669 103.164 113.661 102.814 113.661 102.814C113.661 103.912 113.561 104.81 113.411 105.509C113.261 106.208 113.012 106.806 112.613 107.255C112.263 107.705 111.764 108.004 111.166 108.204C110.567 108.403 109.818 108.503 108.92 108.503H108.521L107.972 110H108.721C110.218 110 111.465 109.85 112.413 109.601C113.411 109.351 114.21 108.902 114.758 108.303C115.357 107.705 115.756 106.906 116.006 105.958C116.255 105.01 116.355 103.762 116.355 102.365V90.8882C116.455 89.6407 115.806 89.0419 114.559 89.0419ZM94.8483 89.0419H91.4551L91.9042 90.5389H94.7984C97.2435 90.5389 98.5409 91.9361 98.7904 94.6806H95.497C93.4012 94.6806 91.9042 95.0299 90.9561 95.6786C90.008 96.3273 89.509 97.4252 89.509 98.8723C89.509 101.517 91.4052 102.864 95.1976 102.864H97.4431L96.8942 101.367H95.497C94.2994 101.367 93.4511 101.168 92.9521 100.818C92.4531 100.469 92.1537 99.8204 92.1537 98.8723C92.1537 97.8743 92.4032 97.1756 92.9022 96.7764C93.4012 96.3772 94.3493 96.1776 95.7465 96.1776H98.7405V101.018C98.7405 102.265 99.3892 102.864 100.637 102.864H101.535V94.98C101.685 90.988 99.3892 89.0419 94.8483 89.0419ZM86.8643 89.1916C86.6148 89.3413 86.4152 89.6407 86.2156 90.1397L82.9721 99.8703L79.978 89.0419H78.7804C78.0319 89.0419 77.5329 89.4411 77.2834 90.2395L74.2395 99.7206L70.996 90.1397C70.7964 89.6906 70.5469 89.3413 70.2974 89.1916C70.0479 89.0419 69.6487 88.9421 69.1497 88.9421H67.3533L72.6427 102.515C72.7924 102.814 73.1916 102.964 73.9401 102.964C74.6886 102.964 75.0878 102.814 75.2375 102.515L78.3812 92.6846L81.3753 102.515C81.4751 102.814 81.8743 102.964 82.6727 102.964C83.4212 102.964 83.8703 102.814 84.02 102.515L89.0599 88.9421H87.9621C87.4631 88.9421 87.0639 89.0419 86.8643 89.1916ZM63.511 96.5269C63.511 97.9741 63.2116 99.1717 62.5629 100.07C61.9142 100.968 61.016 101.417 59.7685 101.417H59.1697C57.9222 101.417 57.024 100.968 56.3752 100.07C55.7764 99.1717 55.4271 97.9741 55.4271 96.5269V95.3293C55.4271 93.8323 55.7265 92.6347 56.3752 91.7864C57.024 90.8882 57.9222 90.489 59.1697 90.489H59.7685C60.9661 90.489 61.9142 90.9381 62.5629 91.7864C63.2116 92.6347 63.511 93.8323 63.511 95.3792V96.5269ZM59.7685 88.992H59.1697C57.1737 88.992 55.7265 89.5409 54.5788 90.6387C53.3812 91.7365 52.8323 93.2834 52.8323 95.3293V96.5269C52.8323 97.5249 52.982 98.3733 53.2814 99.1717C53.5808 99.9701 54.0299 100.619 54.5788 101.168C55.1277 101.717 55.8263 102.116 56.6248 102.415C57.4232 102.715 58.1717 102.864 59.1697 102.864H59.7685C60.7665 102.864 61.515 102.715 62.3134 102.415C63.1118 102.116 63.8104 101.717 64.3593 101.168C64.9082 100.619 65.3573 99.9701 65.6567 99.1717C65.9561 98.3733 66.1058 97.475 66.1058 96.5269V95.3293C66.1058 93.2834 65.507 91.7365 64.3593 90.6387C63.2615 89.5409 61.8144 88.992 59.7685 88.992ZM44.9481 88.992H44.5489C43.6008 88.992 42.8523 89.1417 42.0539 89.4411C41.2555 89.7405 40.6068 90.1896 40.0579 90.7385C39.509 91.2874 39.1098 91.986 38.8104 92.7345C38.511 93.5329 38.3613 94.4311 38.3613 95.3792V96.6267C38.3613 98.6727 38.9601 100.269 40.2076 101.317C41.4052 102.365 43.002 102.914 45.1477 102.914H49.4391L48.8902 101.417H45.1477C44.5489 101.417 44.0499 101.317 43.5509 101.118C43.0519 100.918 42.6527 100.619 42.3034 100.22C41.9541 99.8703 41.6547 99.4212 41.4551 98.9222C41.2555 98.4232 41.1557 97.8743 41.1557 97.2754V95.4291C41.1557 93.9321 41.4052 92.7345 41.9541 91.8363C42.5529 90.8882 43.4012 90.4391 44.5489 90.4391H44.9481C46.1457 90.4391 47.0439 90.8383 47.5429 91.6367C48.0419 92.4351 48.2914 93.6327 48.2914 95.1796H43.4012L42.9022 96.7764H50.5868C50.6367 96.5269 50.6367 96.2774 50.6866 96.0279C50.6866 95.7784 50.7365 95.479 50.7365 95.1297C50.7365 91.0379 48.7904 88.992 44.9481 88.992Z" fill="white"/>
<path d="M127.733 87.2455C127.633 87.1956 127.533 87.1457 127.433 87.0958C132.224 87.1956 136.914 85.4491 140.557 82.2056C136.315 85.3992 131.026 86.7964 125.737 86.0978C122.194 83.6527 119.25 79.7605 117.553 74.9701C115.707 70.0798 115.257 64.6407 116.355 60C113.711 68.3333 115.407 78.9621 122.743 85.3992C121.096 84.9002 119.499 84.2515 117.952 83.3034C113.162 80.509 110.617 75.8683 110.617 75.8683C111.415 78.2635 113.162 81.507 118.401 84.501C120.347 85.6487 122.443 86.3473 124.489 86.7465C127.483 88.6427 130.727 89.0918 133.371 88.7425C132.573 88.6926 131.774 88.5928 130.976 88.3932C129.978 88.2435 128.88 87.8443 127.733 87.2455Z" fill="#EE6923"/>
<rect x="150.5" y="10.5" width="249" height="164" fill="#303866" stroke="#95A4B8"/>
<rect x="10.5" y="185.5" width="1259" height="99" fill="#303866" stroke="#95A4B8"/>
<rect x="410.5" y="10.5" width="206" height="164" fill="#303866" stroke="#95A4B8"/>
<rect x="1063.5" y="10.5" width="206" height="164" fill="#303866" stroke="#95A4B8"/>
<rect x="843.5" y="10.5" width="206" height="164" fill="#303866" stroke="#95A4B8"/>
<rect x="626.5" y="10.5" width="206" height="164" fill="#303866" stroke="#95A4B8"/>
<rect x="770.5" y="295.5" width="499" height="749" fill="#303866" stroke="#95A4B8"/>
<rect x="10.5" y="295.5" width="369" height="495" fill="#303866" stroke="#95A4B8"/>
<rect x="10.5" y="1055.5" width="1259" height="434" fill="#303866" stroke="#95A4B8"/>
<rect x="390.5" y="295.5" width="369" height="242" fill="#303866" stroke="#95A4B8"/>
<rect x="390.5" y="548.5" width="369" height="242" fill="#303866" stroke="#95A4B8"/>
<rect x="390.5" y="801.5" width="369" height="242" fill="#303866" stroke="#95A4B8"/>
<rect x="10.5" y="801.5" width="369" height="242" fill="#303866" stroke="#95A4B8"/>
</svg>
